<svg xmlns:xlink="http://www.w3.org/1999/xlink" xmlns="http://www.w3.org/2000/svg" viewBox="0 0 400 400" width="300" height="300" preserveAspectRatio="xMidYMid meet" style="width: 100%; height: 100%; transform: translate3d(0px, 0px, 0px);"><defs><clipPath id="__lottie_element_2"><rect width="400" height="400" x="0" y="0"></rect></clipPath></defs><g clip-path="url(#__lottie_element_2)"><g transform="matrix(1,0,0,1,200,307.5)" opacity="1" style="display: block;"><g opacity="1" transform="matrix(1,0,0,1,0,0)"><path fill="#F1F333" fill-opacity="1" d=" M30,-58 C30,-58 30,58 30,58 C30,58 -30,58 -30,58 C-30,58 -30,-58 -30,-58 C-30,-58 30,-58 30,-58z"></path><path stroke-linecap="butt" stroke-linejoin="miter" fill-opacity="0" stroke-miterlimit="4" stroke="#000000" stroke-opacity="1" stroke-width="4px" d=" M30,-58 C30,-58 30,58 30,58 C30,58 -30,58 -30,58 C-30,58 -30,-58 -30,-58 C-30,-58 30,-58 30,-58z"></path></g><g opacity="1" transform="matrix(1,0,0,1,0,0)"><path fill="#F1F333" fill-opacity="1" d=" M28,-55 C28,-55 28,61 28,61 C28,61 -28,61 -28,61 C-28,61 -28,-55 -28,-55 C-28,-55 28,-55 28,-55z"></path></g></g><g transform="matrix(1,0,0,1,0,0)" opacity="1" style="display: block;"><g opacity="1" transform="matrix(1,0,0,1,260,367.5)"><g opacity="1" transform="matrix(0.5492075681686401,-0.4455322027206421,1.4576075077056885,0.6383540630340576,53.203731536865234,-43.16032409667969)"></g><g opacity="1" transform="matrix(1,0,0,1,0,0)"><g class="10" opacity="1" transform="matrix(1,0,0,1,0,0)"></g></g><g opacity="1" transform="matrix(1,0,0,1,0,0)"><g opacity="1" transform="matrix(1,0,0,1,-200,-200)"></g></g><g opacity="1" transform="matrix(1,0,0,1,-135,0)"><g opacity="1" transform="matrix(1,0,0,1,0,0)"></g></g></g><g opacity="1" transform="matrix(1,0,0,1,0,0)"><g opacity="1" transform="matrix(1,0,0,1,260,367.5)"><path stroke-linecap="round" stroke-linejoin="miter" fill-opacity="0" stroke-miterlimit="4" stroke="#000000" stroke-opacity="1" stroke-width="21px" d=" M0,0 C0,0 -2.73,-1.8 -7.39,-5.34"></path><path stroke-linecap="round" stroke-linejoin="round" fill-opacity="0" stroke="#FF90E8" stroke-opacity="1" stroke-width="15px" d=" M0,0 C0,0 -2.73,-1.8 -7.39,-5.34"></path><g opacity="1" transform="matrix(0.5492075681686401,-0.4455322027206421,1.4576075077056885,0.6383540630340576,53.203731536865234,-43.16032409667969)"></g></g><g opacity="1" transform="matrix(1,0,0,1,260,367.5)"><path stroke-linecap="square" stroke-linejoin="round" fill-opacity="0" stroke="#000000" stroke-opacity="1" stroke-width="21px" d=" M-14.22,-10.74 C-25.19,-19.68 -41.23,-34.15 -57.72,-53.82 C-86.48,-88.14 -87.94,-104.11 -88,-104.96"></path><path stroke-linecap="square" stroke-linejoin="round" fill-opacity="0" stroke="#F1F333" stroke-opacity="1" stroke-width="15px" d=" M-14.22,-10.74 C-25.19,-19.68 -41.23,-34.15 -57.72,-53.82 C-86.48,-88.14 -87.94,-104.11 -88,-104.96"></path><g opacity="1" transform="matrix(0.5492075681686401,-0.4455322027206421,1.4576075077056885,0.6383540630340576,53.203731536865234,-43.16032409667969)"></g></g></g></g><g transform="matrix(1,0,0,1,0,0)" opacity="1" style="display: block;"><g opacity="1" transform="matrix(1,0,0,1,240,259.5)"><g opacity="1" transform="matrix(-0.8574929237365723,-0.5144957304000854,0.5144957304000854,-0.8574929237365723,-7.499999523162842,-4.5)"></g><g opacity="1" transform="matrix(1,0,0,1,0,0)"><g class="10" opacity="1" transform="matrix(1,0,0,1,0,0)"></g></g><g opacity="1" transform="matrix(1,0,0,1,0,0)"><g opacity="1" transform="matrix(1,0,0,1,-200,-200)"></g></g><g opacity="1" transform="matrix(1,0,0,1,-135,0)"><g opacity="1" transform="matrix(1,0,0,1,0,0)"></g></g></g><g opacity="1" transform="matrix(1,0,0,1,0,0)"><g opacity="1" transform="matrix(1,0,0,1,240,259.5)"><path stroke-linecap="round" stroke-linejoin="miter" fill-opacity="0" stroke-miterlimit="4" stroke="#000000" stroke-opacity="1" stroke-width="21px" d=" M0,0 C0,0 1.78,3.06 3.79,7.43"></path><path stroke-linecap="round" stroke-linejoin="round" fill-opacity="0" stroke="#FF90E8" stroke-opacity="1" stroke-width="15px" d=" M0,0 C0,0 1.78,3.06 3.79,7.43"></path><g opacity="1" transform="matrix(-0.8574929237365723,-0.5144957304000854,0.5144957304000854,-0.8574929237365723,-7.499999523162842,-4.5)"></g></g><g opacity="1" transform="matrix(1,0,0,1,240,259.5)"><path stroke-linecap="square" stroke-linejoin="round" fill-opacity="0" stroke="#000000" stroke-opacity="1" stroke-width="21px" d=" M3.79,7.43 C8.35,17.34 14.09,33.99 2.83,36.81 C-13.12,40.8 -12.04,4.27 -12,3.03"></path><path stroke-linecap="square" stroke-linejoin="round" fill-opacity="0" stroke="#F1F333" stroke-opacity="1" stroke-width="15px" d=" M3.79,7.43 C8.35,17.34 14.09,33.99 2.83,36.81 C-13.12,40.8 -12.04,4.27 -12,3.03"></path><g opacity="1" transform="matrix(-0.8574929237365723,-0.5144957304000854,0.5144957304000854,-0.8574929237365723,-7.499999523162842,-4.5)"></g></g></g></g><g transform="matrix(1,0,0,1,200,241)" opacity="1" style="display: block;"><g opacity="1" transform="matrix(1,0,0,1,0,0)"><path fill="#F1F333" fill-opacity="1" d=" M0,-41.5 C16.55699920654297,-41.5 30,-20.21525001525879 30,6 C30,32.215248107910156 16.55699920654297,53.5 0,53.5 C-16.55699920654297,53.5 -30,32.215248107910156 -30,6 C-30,-20.21525001525879 -16.55699920654297,-41.5 0,-41.5z"></path></g></g><g transform="matrix(1,0,0,1,204,263)" opacity="1" style="display: block;"><g opacity="1" transform="matrix(1,0,0,1,0,0)"><path fill="#FF90E8" fill-opacity="1" d=" M15.322999954223633,0 C15.322999954223633,7.452000141143799 8.463000297546387,13.493000030517578 0,13.493000030517578 C-8.463000297546387,13.493000030517578 -15.322999954223633,7.452000141143799 -15.322999954223633,0 C-15.322999954223633,-7.452000141143799 -8.463000297546387,-13.493000030517578 0,-13.493000030517578 C8.463000297546387,-13.493000030517578 15.322999954223633,-7.452000141143799 15.322999954223633,0z"></path><path stroke-linecap="butt" stroke-linejoin="miter" fill-opacity="0" stroke-miterlimit="10" stroke="#000000" stroke-opacity="1" stroke-width="3px" d=" M15.322999954223633,0 C15.322999954223633,7.452000141143799 8.463000297546387,13.493000030517578 0,13.493000030517578 C-8.463000297546387,13.493000030517578 -15.322999954223633,7.452000141143799 -15.322999954223633,0 C-15.322999954223633,-7.452000141143799 -8.463000297546387,-13.493000030517578 0,-13.493000030517578 C8.463000297546387,-13.493000030517578 15.322999954223633,-7.452000141143799 15.322999954223633,0z"></path></g></g><g transform="matrix(0.9848077297210693,0.1736481785774231,-0.1736481785774231,0.9848077297210693,116.92686462402344,-7.507659912109375)" opacity="1" style="display: block;"><g opacity="1" transform="matrix(1,0,0,1,130,148.05499267578125)"><path fill="#FF90E8" fill-opacity="1" d=" M55.84000015258789,17.017000198364258 C45.2760009765625,8.685999870300293 45.2760009765625,-8.699000358581543 55.84000015258789,-17.017000198364258 C68.46499633789062,-26.98200035095215 76.18599700927734,-40.323001861572266 76.18599700927734,-54.98500061035156 C76.18599700927734,-85.81300354003906 42.064998626708984,-110.8010025024414 0,-110.8010025024414 C-42.064998626708984,-110.8010025024414 -76.18599700927734,-85.81300354003906 -76.18599700927734,-54.98500061035156 C-76.18599700927734,-40.323001861572266 -68.46499633789062,-26.98200035095215 -55.84000015258789,-17.017000198364258 C-45.2760009765625,-8.685999870300293 -45.2760009765625,8.699000358581543 -55.84000015258789,17.017000198364258 C-68.46499633789062,26.98200035095215 -76.18599700927734,40.323001861572266 -76.18599700927734,54.98500061035156 C-76.18599700927734,85.81300354003906 -42.064998626708984,110.8010025024414 0,110.8010025024414 C42.064998626708984,110.8010025024414 76.18599700927734,85.81300354003906 76.18599700927734,54.98500061035156 C76.18599700927734,40.323001861572266 68.46499633789062,26.98200035095215 55.84000015258789,17.017000198364258z"></path><path stroke-linecap="butt" stroke-linejoin="miter" fill-opacity="0" stroke-miterlimit="10" stroke="#000000" stroke-opacity="1" stroke-width="3px" d=" M55.84000015258789,17.017000198364258 C45.2760009765625,8.685999870300293 45.2760009765625,-8.699000358581543 55.84000015258789,-17.017000198364258 C68.46499633789062,-26.98200035095215 76.18599700927734,-40.323001861572266 76.18599700927734,-54.98500061035156 C76.18599700927734,-85.81300354003906 42.064998626708984,-110.8010025024414 0,-110.8010025024414 C-42.064998626708984,-110.8010025024414 -76.18599700927734,-85.81300354003906 -76.18599700927734,-54.98500061035156 C-76.18599700927734,-40.323001861572266 -68.46499633789062,-26.98200035095215 -55.84000015258789,-17.017000198364258 C-45.2760009765625,-8.685999870300293 -45.2760009765625,8.699000358581543 -55.84000015258789,17.017000198364258 C-68.46499633789062,26.98200035095215 -76.18599700927734,40.323001861572266 -76.18599700927734,54.98500061035156 C-76.18599700927734,85.81300354003906 -42.064998626708984,110.8010025024414 0,110.8010025024414 C42.064998626708984,110.8010025024414 76.18599700927734,85.81300354003906 76.18599700927734,54.98500061035156 C76.18599700927734,40.323001861572266 68.46499633789062,26.98200035095215 55.84000015258789,17.017000198364258z"></path></g></g><g transform="matrix(0.9848077297210693,0.1736481785774231,-0.1736481785774231,0.9848077297210693,95.90746307373047,-3.477569580078125)" opacity="1" style="display: block;"><g opacity="1" transform="matrix(1,0,0,1,130,229.57699584960938)"><path stroke-linecap="round" stroke-linejoin="round" fill-opacity="0" stroke="#000000" stroke-opacity="1" stroke-width="3px" d=" M-15.748000144958496,-4.0960001945495605 C-11.899999618530273,0.925000011920929 -6.2729997634887695,4.0960001945495605 0,4.0960001945495605 C6.2729997634887695,4.0960001945495605 11.899999618530273,0.925000011920929 15.748000144958496,-4.0960001945495605"></path></g></g><g transform="matrix(0.9848077297210693,0.1736481785774231,-0.1736481785774231,0.9848077297210693,95.90768432617188,-3.477386474609375)" opacity="1" style="display: block;"><g opacity="1" transform="matrix(1,0,0,1,0,0)"><g opacity="1" transform="matrix(1,0,0,1,100.62699890136719,212.38099670410156)"><path fill="rgb(0,0,0)" fill-opacity="1" d=" M2.575000047683716,0 C2.575000047683716,1.4220000505447388 1.4220000505447388,2.575000047683716 0,2.575000047683716 C-1.4220000505447388,2.575000047683716 -2.575000047683716,1.4220000505447388 -2.575000047683716,0 C-2.575000047683716,-1.4220000505447388 -1.4220000505447388,-2.575000047683716 0,-2.575000047683716 C1.4220000505447388,-2.575000047683716 2.575000047683716,-1.4220000505447388 2.575000047683716,0z"></path></g><g opacity="1" transform="matrix(1,0,0,1,159.3730010986328,212.38099670410156)"><path fill="rgb(0,0,0)" fill-opacity="1" d=" M2.575000047683716,0 C2.575000047683716,1.4220000505447388 1.4220000505447388,2.575000047683716 0,2.575000047683716 C-1.4220000505447388,2.575000047683716 -2.575000047683716,1.4220000505447388 -2.575000047683716,0 C-2.575000047683716,-1.4220000505447388 -1.4220000505447388,-2.575000047683716 0,-2.575000047683716 C1.4220000505447388,-2.575000047683716 2.575000047683716,-1.4220000505447388 2.575000047683716,0z"></path></g></g></g><g transform="matrix(1,0,0,1,0,0)" opacity="1" style="display: block;"><g opacity="1" transform="matrix(1,0,0,1,240,259.5)"><g opacity="1" transform="matrix(-0.8574929237365723,-0.5144957304000854,0.5144957304000854,-0.8574929237365723,-7.499999523162842,-4.5)"></g><g opacity="1" transform="matrix(1,0,0,1,0,0)"><g class="10" opacity="1" transform="matrix(1,0,0,1,0,0)"></g></g><g opacity="1" transform="matrix(1,0,0,1,0,0)"><g opacity="1" transform="matrix(1,0,0,1,-200,-200)"></g></g><g opacity="1" transform="matrix(1,0,0,1,-135,0)"><g opacity="1" transform="matrix(1,0,0,1,0,0)"></g></g></g><g opacity="1" transform="matrix(1,0,0,1,0,0)"><g opacity="1" transform="matrix(1,0,0,1,240,259.5)"><path stroke-linecap="round" stroke-linejoin="miter" fill-opacity="0" stroke-miterlimit="4" stroke="#000000" stroke-opacity="1" stroke-width="21px" d=" M0,0 C0,0 1.78,3.06 3.79,7.43"></path><path stroke-linecap="round" stroke-linejoin="round" fill-opacity="0" stroke="#FF90E8" stroke-opacity="1" stroke-width="15px" d=" M0,0 C0,0 1.78,3.06 3.79,7.43"></path><g opacity="1" transform="matrix(-0.8574929237365723,-0.5144957304000854,0.5144957304000854,-0.8574929237365723,-7.499999523162842,-4.5)"></g></g><g opacity="1" transform="matrix(1,0,0,1,240,259.5)"><path stroke-linecap="square" stroke-linejoin="round" fill-opacity="0" stroke="#000000" stroke-opacity="1" stroke-width="20px" d=" M3.79,7.43 C5.05,10.16 6.39,13.41 7.45,16.73"></path><path stroke-linecap="square" stroke-linejoin="round" fill-opacity="0" stroke="#F1F333" stroke-opacity="1" stroke-width="15px" d=" M3.79,7.43 C5.05,10.16 6.39,13.41 7.45,16.73"></path><g opacity="1" transform="matrix(-0.8574929237365723,-0.5144957304000854,0.5144957304000854,-0.8574929237365723,-7.499999523162842,-4.5)"></g></g><g opacity="1" transform="matrix(1,0,0,1,240,259.5)"><path stroke-linecap="round" stroke-linejoin="round" fill-opacity="0" stroke="#F1F333" stroke-opacity="1" stroke-width="15px" d=" M6.92,15.15 C10.1,24.32 11.48,34.65 2.83,36.81 C-1.93,38 -5.17,35.59 -7.37,31.58"></path><g opacity="1" transform="matrix(-0.8574929237365723,-0.5144957304000854,0.5144957304000854,-0.8574929237365723,-7.499999523162842,-4.5)"></g></g></g></g></g></svg>